<svg width="167" height="59" viewBox="0 0 167 59" fill="none" xmlns="http://www.w3.org/2000/svg">
<path d="M125.396 24.1129C122.484 22.0201 124.668 15.2867 125.396 14.5587C126.123 13.8307 164.705 5.82345 166.16 7.27932C167.616 8.7352 166.889 16.1966 166.16 16.8335C165.432 17.4704 154.52 15.4687 153.061 16.8335C151.601 18.1984 153.792 50.2277 153.061 50.9556C152.329 51.6835 142.138 51.6835 141.407 50.9556C140.676 50.2277 145.05 18.9263 141.407 16.8335C137.765 14.7407 128.308 26.2057 125.396 24.1129Z" fill="#FFEB58"/>
<path fill-rule="evenodd" clip-rule="evenodd" d="M37.3974 17.0124C35.0032 15.4126 32.1884 14.5588 29.3089 14.5588V0C35.0678 0 40.6974 1.70771 45.4858 4.90719C50.2741 8.10666 54.0061 12.6542 56.21 17.9747C58.4138 23.2952 58.9905 29.1499 57.867 34.7981C56.7435 40.4463 53.9703 45.6346 49.8981 49.7067C45.826 53.7789 40.6377 56.5521 34.9895 57.6756C29.3413 58.7991 23.4866 58.2224 18.1661 56.0186C12.8456 53.8147 8.29806 50.0827 5.0986 45.2944C1.89912 40.506 0.191406 34.8764 0.191406 29.1175H14.7502C14.7502 31.997 15.604 34.8118 17.2038 37.2059C18.8035 39.6001 21.0773 41.4661 23.7376 42.5681C26.3978 43.67 29.3251 43.9583 32.1492 43.3965C34.9733 42.8348 37.5674 41.4482 39.6036 39.4122C41.6396 37.376 43.0262 34.7819 43.5879 31.9578C44.1497 29.1337 43.8614 26.2064 42.7595 23.5462C41.6575 20.8859 39.7915 18.6121 37.3974 17.0124Z" fill="#FFEB58"/>
<path fill-rule="evenodd" clip-rule="evenodd" d="M14.7502 6.30577e-06C14.7502 1.91189 14.3736 3.80505 13.6419 5.5714C12.9103 7.33775 11.8379 8.9427 10.486 10.2946C9.1341 11.6465 7.52916 12.7189 5.7628 13.4506C3.99645 14.1822 2.10328 14.5588 0.191407 14.5588L0.191406 29.1175C4.01517 29.1175 7.8015 28.3644 11.3342 26.9011C14.8669 25.4378 18.0768 23.293 20.7805 20.5892C23.4844 17.8854 25.6292 14.6755 27.0925 11.1428C28.5558 7.61009 29.3089 3.82376 29.3089 0L14.7502 6.30577e-06Z" fill="#FFEB58"/>
<path d="M67.1619 7.27933C67.8905 6.5514 81.8838 6.5514 82.5301 7.27933C83.1763 8.00726 93.1012 32.0179 93.1012 32.0179C93.1012 32.0179 81.7207 43.6762 94.8236 32.0292C107.926 20.3822 106.846 8.42234 107.492 7.69441C108.139 6.96647 119.119 6.86425 119.573 7.27933C120.028 7.69441 120.301 50.2277 119.573 50.9556C118.846 51.6836 107.926 51.6836 107.492 50.9556C107.058 50.2277 107.492 25.7053 107.492 25.7053H107.137C107.137 25.7053 97.7353 50.2277 97.0099 50.6144C96.2844 51.0011 90.456 50.9556 89.7256 50.6144C88.9952 50.2732 79.5986 25.5347 79.5986 25.5347H79.2433C79.2433 25.5347 79.7311 50.6144 79.2433 50.9556C78.7555 51.2969 67.8899 51.6836 67.1619 50.9556C66.434 50.2277 66.4334 8.00726 67.1619 7.27933Z" fill="#FFEB58"/>
</svg>
